<?xml version="1.0"?>
<svg xmlns="http://www.w3.org/2000/svg" xmlns:xlink="http://www.w3.org/1999/xlink" xmlns:svgjs="http://svgjs.com/svgjs" version="1.1" width="512" height="512" x="0" y="0" viewBox="0 0 35 35" style="enable-background:new 0 0 512 512" xml:space="preserve" class=""><g><g xmlns="http://www.w3.org/2000/svg"><path d="m21.92 5.5026h-19c-.5601 0-1 .4399-1 1v12c0 .5499.4399 1 1 1h19c.55 0 1-.4501 1-1v-12c0-.5601-.4499-1-1-1z" fill="#53d436" data-original="#000000" class=""/><path d="m1.91 24.5026c0 .5499.45 1 1 1h1.08c.42-2.0901 2.14-3.73 4.28-4h-5.35c-.3601 0-.6899-.0601-1.01-.1801z" fill="#53d436" data-original="#000000" class=""/><path d="m30.85 25.5026h1.24c.55 0 1-.4501 1-1v-8.76c0-1.5701-3.83-5.24-5.9299-5.24h-2.24v8c0 1.6499-1.3501 3-3 3h-12.3502c2.1401.27 3.8601 1.9099 4.28 4h7.14c.4601-2.3 2.4901-4.05 4.9301-4.05 2.43-.0001 4.47 1.7499 4.93 4.05zm-4.2901-12.5401c5.1201-.25 4.9102 5.04 4.9102 5.04h-4.9102z" fill="#53d436" data-original="#000000" class=""/><circle cx="25.916" cy="26.477" r="3.02" fill="#53d436" data-original="#000000" class=""/><circle cx="8.916" cy="26.477" r="3.02" fill="#53d436" data-original="#000000" class=""/></g></g></svg>
